<svg width="80" height="51" viewBox="0 0 80 51" fill="none" xmlns="http://www.w3.org/2000/svg">
<path d="M55.3428 31.9971C54.3142 32.2398 51.6071 32.3795 51.6071 32.3795L51.2642 33.4824C51.2642 33.4824 52.6142 33.3648 53.5999 33.4677C53.5999 33.4677 53.9213 33.4309 53.9571 33.8427C53.9713 34.2251 53.9285 34.6368 53.9285 34.6368C53.9285 34.6368 53.9071 34.8868 53.5642 34.9457C53.1928 35.0118 50.6499 35.1074 50.6499 35.1074L50.2356 36.5412C50.2356 36.5412 50.0856 36.8721 50.4285 36.7765C50.7499 36.6883 53.4142 36.1736 53.7642 36.2471C54.1356 36.3427 54.5499 36.8501 54.4285 37.3207C54.2856 37.8942 51.6285 39.6442 50.0071 39.5192C50.0071 39.5192 49.1571 39.578 48.4356 38.3942C47.7642 37.2692 48.6928 35.1295 48.6928 35.1295C48.6928 35.1295 48.2713 34.1295 48.5785 33.7986C48.5785 33.7986 48.7642 33.6295 49.2928 33.5854L49.9428 32.1957C49.9428 32.1957 49.1999 32.2471 48.7571 31.6883C48.3428 31.1515 48.3142 30.9089 48.6285 30.7618C48.9642 30.5927 52.0571 30.0118 54.1856 30.0854C54.1856 30.0854 54.9285 30.0118 55.5642 31.3354C55.5571 31.3354 55.8713 31.8721 55.3428 31.9971ZM47.3356 37.3354C47.0642 37.9971 46.3428 38.703 45.4499 38.2618C44.5642 37.8207 43.1571 34.8574 43.1571 34.8574C43.1571 34.8574 42.6213 33.7545 42.5213 33.7765C42.5213 33.7765 42.4071 33.5633 42.3356 34.7692C42.2642 35.9751 42.3499 38.3207 41.8856 38.6883C41.4428 39.056 40.9071 38.9089 40.6285 38.4751C40.3785 38.0486 40.2713 37.0339 40.4071 35.2545C40.5714 33.4751 40.9713 31.578 41.4856 30.9824C41.9999 30.3942 42.4142 30.8207 42.5713 30.9751C42.5713 30.9751 43.2571 31.6148 44.3928 33.4971L44.5928 33.8427C44.5928 33.8427 45.6213 35.6221 45.7285 35.6148C45.7285 35.6148 45.8142 35.6957 45.8856 35.6368C45.9928 35.6074 45.9499 35.0339 45.9499 35.0339C45.9499 35.0339 45.7356 33.1001 44.7999 29.8207C44.7999 29.8207 44.6571 29.4089 44.7571 29.0265C44.8499 28.6368 45.2285 28.8207 45.2285 28.8207C45.2285 28.8207 46.6856 29.5707 47.3856 32.0118C48.0785 34.4751 47.6071 36.6736 47.3356 37.3354ZM40.1785 31.0633C40.0571 31.3133 39.9856 31.6736 39.3713 31.7692C39.3713 31.7692 33.4928 32.1809 33.2142 32.6074C33.2142 32.6074 33.0071 32.8574 33.3285 32.931C33.6499 32.9971 34.9785 33.1809 35.6213 33.2177C36.3071 33.2251 38.6213 33.2471 39.4499 34.3133C39.4499 34.3133 39.9428 34.8207 39.9213 35.9677C39.8999 37.1442 39.6999 37.5559 39.2571 37.9824C38.7928 38.3795 34.8071 40.2177 32.2356 37.3942C32.2356 37.3942 31.0499 36.0339 32.6428 35.0045C32.6428 35.0045 33.7928 34.2912 36.7142 35.1295C36.7142 35.1295 37.5999 35.4604 37.5571 35.7912C37.5071 36.1442 36.8285 36.5192 35.8428 36.4971C34.8856 36.4677 34.1856 35.9971 34.3213 36.0707C34.4499 36.1221 33.2928 35.4971 32.9356 35.9236C32.5785 36.3133 32.6642 36.5559 33.0142 36.7986C33.9071 37.3207 37.3571 37.1368 38.3856 35.9604C38.3856 35.9604 38.7928 35.4824 38.1713 35.0927C37.5499 34.7251 35.7713 34.5045 35.0785 34.4677C34.4142 34.4309 31.9428 34.4751 31.5856 33.7986C31.5856 33.7986 31.2285 33.3427 31.6213 32.0486C32.0356 30.6957 34.9142 30.1736 36.1571 30.0559C36.1571 30.0559 39.5785 29.931 40.2071 30.6515C40.1999 30.6515 40.2856 30.8207 40.1785 31.0633ZM30.4642 38.9971C30.0499 39.3133 29.1714 39.1736 28.9214 38.8207C28.6714 38.5045 28.5856 37.2471 28.6356 35.2765C28.6856 33.2839 28.7285 30.8133 29.1428 30.4236C29.5856 30.0265 29.8571 30.3721 30.0285 30.6442C30.2142 30.9089 30.4356 31.203 30.4856 31.828C30.5285 32.453 30.6714 35.7324 30.6714 35.7324C30.6714 35.7324 30.8571 38.6883 30.4642 38.9971ZM31.3571 28.4236C30.1499 28.8354 29.3214 28.6957 28.6213 28.3868C28.3142 28.9383 28.1356 29.1074 27.8999 29.1442C27.5571 29.181 27.2499 28.6148 27.1928 28.431C27.1356 28.2912 26.9713 28.0559 27.1714 27.4971C26.4856 26.8648 26.4356 26.0118 26.5499 25.4383C26.7213 24.7765 27.8785 22.2618 31.3999 21.9677C31.3999 21.9677 33.1213 21.8354 33.4142 22.7839H33.4642C33.4642 22.7839 35.1356 22.7912 35.0999 24.3207C35.0785 25.8574 33.2428 27.7692 31.3571 28.4236ZM28.0713 25.0192C27.7142 25.6074 27.6999 25.9604 27.8642 26.203C28.2713 25.5633 29.0142 24.5559 30.1071 23.7912C29.2642 23.8648 28.5571 24.2398 28.0713 25.0192ZM32.9356 24.0339C31.8285 24.203 30.1142 25.7324 29.2999 26.9824C30.5499 27.2177 32.7571 27.1295 33.7356 25.078C33.7285 25.078 34.1999 23.806 32.9356 24.0339ZM62.9928 35.8795C62.3285 37.0707 60.4642 39.5559 57.9785 38.9751C57.1571 41.0265 56.4713 43.0927 56.0785 46.1957C56.0785 46.1957 55.9928 46.7986 55.5071 46.5854C55.0285 46.4089 54.2285 45.5854 54.0713 44.4457C53.8999 42.9457 54.5499 40.4089 55.8713 37.5045C55.4856 36.8574 55.2214 35.9309 55.4499 34.6148C55.4499 34.6148 55.7856 32.1736 58.1642 29.9677C58.1642 29.9677 58.4499 29.7104 58.6142 29.7912C58.7999 29.8721 58.7142 30.6662 58.5642 31.0486C58.4142 31.4309 57.3499 33.328 57.3499 33.328C57.3499 33.328 56.6856 34.6074 56.8713 35.6148C58.1213 33.6368 60.9642 29.6442 62.7285 30.9015C63.3213 31.3354 63.5928 32.2839 63.5928 33.3059C63.5856 34.2104 63.3785 35.1662 62.9928 35.8795ZM62.4785 32.7471C62.4785 32.7471 62.3785 31.9604 61.6356 32.828C60.9928 33.5559 59.8356 34.931 58.8999 36.7912C59.8785 36.681 60.8213 36.1295 61.1071 35.8501C61.5713 35.4236 62.6499 34.2765 62.4785 32.7471ZM27.7999 33.7471C27.6642 35.5265 26.9999 38.5192 22.2928 39.9971C19.1856 40.9604 16.2499 40.4971 14.6499 40.078C14.6142 40.7324 14.5428 41.0118 14.4428 41.1221C14.3071 41.2618 13.2928 41.8648 12.7356 41.0118C12.4856 40.6074 12.3571 39.8721 12.2856 39.2177C8.68564 37.5118 7.02849 35.0559 6.96421 34.9457C6.88564 34.8648 6.06421 33.9824 6.88564 32.9015C7.65706 31.9236 10.1785 30.9457 12.4499 30.5486C12.5285 28.5486 12.7571 27.0412 13.0285 26.3501C13.3571 25.5486 13.7713 26.2692 14.1285 26.8133C14.4285 27.2177 14.6071 28.9604 14.6214 30.3501C16.1071 30.2765 16.9856 30.3868 18.6428 30.6957C20.7999 31.1001 22.2428 32.2324 22.1142 33.5192C22.0213 34.7839 20.8928 35.306 20.4642 35.3427C20.0142 35.3795 19.3142 35.0486 19.3142 35.0486C18.8356 34.8133 19.2785 34.6074 19.8571 34.3501C20.4856 34.0339 20.3428 33.7104 20.3428 33.7104C20.1071 33.0045 17.3071 32.5118 14.5213 32.5118C14.5071 34.0927 14.5856 36.7177 14.6214 38.2471C16.5714 38.6295 18.0285 38.556 18.0285 38.556C18.0285 38.556 25.1428 38.3501 25.3571 33.6736C25.5785 28.9898 18.2642 24.4971 12.8571 23.0707C7.45707 21.6148 4.39992 22.6295 4.13564 22.7692C3.84992 22.9162 4.11421 22.9604 4.11421 22.9604C4.11421 22.9604 4.40706 23.0045 4.91421 23.1809C5.44992 23.3574 5.03564 23.6442 5.03564 23.6442C4.11421 23.9457 3.07849 23.7545 2.87849 23.3207C2.67849 22.8868 3.01421 22.4971 3.39992 21.9383C3.78564 21.3501 4.20706 21.3721 4.20706 21.3721C10.8856 18.9898 19.0213 23.2986 19.0213 23.2986C26.6428 27.2765 27.9428 31.9383 27.7999 33.7471ZM7.64278 33.5045C6.88564 33.8868 7.40707 34.4383 7.40707 34.4383C8.82849 36.0118 10.5785 36.9971 12.2428 37.6074C12.4356 34.8942 12.4071 33.9383 12.4285 32.5707C9.82849 32.7545 8.32849 33.181 7.64278 33.5045Z" fill="white"/>
<path d="M77.1356 32.9457V33.9163C77.1356 34.1295 76.9714 34.2986 76.7642 34.2986H72.2714C72.2714 34.5413 72.2785 34.7545 72.2785 34.9531C72.2785 36.3869 72.2214 37.556 72.0856 38.8722C72.0642 39.0707 71.9071 39.2178 71.7214 39.2178H70.7499C70.6499 39.2178 70.5571 39.1736 70.4928 39.1001C70.4285 39.0266 70.3928 38.9236 70.4071 38.8207C70.5428 37.5119 70.6071 36.3575 70.6071 34.9531C70.6071 34.7472 70.6071 34.5339 70.5999 34.2986H66.1571C65.9499 34.2986 65.7856 34.1295 65.7856 33.9163V32.9457C65.7856 32.7325 65.9499 32.5633 66.1571 32.5633H70.5356C70.4428 30.9825 70.2571 29.4604 69.9571 27.9163C69.9428 27.8207 69.9642 27.7251 70.0214 27.6516C70.0785 27.5781 70.1642 27.5339 70.2571 27.5339H71.3071C71.4714 27.5339 71.6071 27.6516 71.6428 27.8207C71.9356 29.4163 72.1214 30.9678 72.2142 32.5633H76.7642C76.9642 32.5633 77.1356 32.7398 77.1356 32.9457Z" fill="white"/>
<path d="M71.0212 25.2472C68.6998 19.3722 64.7783 14.3648 59.6783 10.7619C54.4569 7.07805 48.3355 5.12952 41.9783 5.12952C31.4641 5.12952 21.7069 10.5045 15.8855 19.5119C15.8212 19.6075 15.8069 19.7325 15.8426 19.8428C15.8783 19.9604 15.964 20.0413 16.0712 20.078L16.8855 20.3648C16.9355 20.3795 16.9855 20.3869 17.0283 20.3869C17.1783 20.3869 17.3212 20.306 17.4069 20.181C20.0783 16.1369 23.6926 12.7766 27.864 10.453C32.1712 8.05599 37.0498 6.78393 41.9712 6.78393C47.9212 6.78393 53.6569 8.59275 58.5712 12.0045C63.364 15.3354 67.0855 19.9898 69.3355 25.453C69.3998 25.6148 69.5569 25.7251 69.7283 25.7251H70.6998C70.8141 25.7251 70.9212 25.6663 70.9783 25.5707C71.0498 25.4751 71.0641 25.3575 71.0212 25.2472ZM69.5283 25.5928C69.5498 25.6075 69.5712 25.6222 69.5926 25.6295C69.5712 25.6148 69.5498 25.6075 69.5283 25.5928Z" fill="url(#paint0_radial_2_133)"/>
<defs>
<radialGradient id="paint0_radial_2_133" cx="0" cy="0" r="1" gradientUnits="userSpaceOnUse" gradientTransform="translate(70.1086 25.6881) scale(54.2946 55.8915)">
<stop offset="0.00708621" stop-color="white"/>
<stop offset="0.0300991" stop-color="#CBFFFF"/>
<stop offset="0.0570069" stop-color="#96FFFF"/>
<stop offset="0.0842769" stop-color="#68FFFF"/>
<stop offset="0.1113" stop-color="#43FFFF"/>
<stop offset="0.1382" stop-color="#25FFFF"/>
<stop offset="0.1647" stop-color="#11FFFF"/>
<stop offset="0.1908" stop-color="#04FFFF"/>
<stop offset="0.2159" stop-color="#00FFFF"/>
<stop offset="1" stop-color="#0000FF" stop-opacity="0"/>
</radialGradient>
</defs>
</svg>
